<svg width="2443" height="516" viewBox="0 0 2443 516" fill="none"
    xmlns="http://www.w3.org/2000/svg">
    <circle cx="250.209" cy="250" r="46.4019" fill="#FFAC1C"/>
    <rect x="240.928" y="144.636" width="18.5608" height="60.3225" fill="#FFAC1C"/>
    <rect x="283.676" y="101.888" width="18.5608" height="60.3224" transform="rotate(45 283.676 101.888)" fill="#FFAC1C"/>
    <path fill-rule="evenodd" clip-rule="evenodd" d="M310.578 118.219C327.235 118.219 340.739 104.715 340.739 88.0574C340.739 71.3998 327.235 57.8962 310.578 57.8962C293.92 57.8962 280.416 71.3998 280.416 88.0574C280.416 104.715 293.92 118.219 310.578 118.219ZM309.857 104.433C300.927 104.433 293.688 97.1942 293.688 88.2645C293.688 79.3347 300.927 72.0958 309.857 72.0958C318.786 72.0958 326.025 79.3347 326.025 88.2645C326.025 97.1942 318.786 104.433 309.857 104.433ZM309.857 105.433C300.375 105.433 292.688 97.7465 292.688 88.2645C292.688 78.7824 300.375 71.0958 309.857 71.0958C319.339 71.0958 327.025 78.7824 327.025 88.2645C327.025 97.7465 319.339 105.433 309.857 105.433Z" fill="#FFAC1C"/>
    <rect x="259.072" y="355.364" width="18.5608" height="60.3225" transform="rotate(180 259.072 355.364)" fill="#FFAC1C"/>
    <rect x="216.324" y="398.112" width="18.5608" height="60.3224" transform="rotate(-135 216.324 398.112)" fill="#FFAC1C"/>
    <path fill-rule="evenodd" clip-rule="evenodd" d="M189.422 381.781C172.765 381.781 159.261 395.285 159.261 411.943C159.261 428.6 172.765 442.104 189.422 442.104C206.08 442.104 219.584 428.6 219.584 411.943C219.584 395.285 206.08 381.781 189.422 381.781ZM190.143 395.567C199.073 395.567 206.312 402.806 206.312 411.736C206.312 420.665 199.073 427.904 190.143 427.904C181.214 427.904 173.975 420.665 173.975 411.736C173.975 402.806 181.214 395.567 190.143 395.567ZM190.143 394.567C199.625 394.567 207.312 402.254 207.312 411.736C207.312 421.218 199.625 428.904 190.143 428.904C180.661 428.904 172.975 421.218 172.975 411.736C172.975 402.254 180.661 394.567 190.143 394.567Z" fill="#FFAC1C"/>
    <rect x="144.636" y="259.072" width="18.5608" height="60.3225" transform="rotate(-90 144.636 259.072)" fill="#FFAC1C"/>
    <rect x="101.888" y="216.324" width="18.5608" height="60.3224" transform="rotate(-45 101.888 216.324)" fill="#FFAC1C"/>
    <path fill-rule="evenodd" clip-rule="evenodd" d="M118.219 189.422C118.219 172.765 104.715 159.261 88.0574 159.261C71.3998 159.261 57.8962 172.765 57.8962 189.422C57.8962 206.08 71.3998 219.584 88.0574 219.584C104.715 219.584 118.219 206.08 118.219 189.422ZM104.433 190.143C104.433 199.073 97.1942 206.312 88.2644 206.312C79.3347 206.312 72.0957 199.073 72.0957 190.143C72.0957 181.214 79.3347 173.975 88.2644 173.975C97.1942 173.975 104.433 181.214 104.433 190.143ZM105.433 190.143C105.433 199.625 97.7464 207.312 88.2644 207.312C78.7824 207.312 71.0957 199.625 71.0957 190.143C71.0957 180.661 78.7824 172.975 88.2644 172.975C97.7464 172.975 105.433 180.661 105.433 190.143Z" fill="#FFAC1C"/>
    <rect x="355.364" y="240.928" width="18.5608" height="60.3225" transform="rotate(90 355.364 240.928)" fill="#FFAC1C"/>
    <rect x="398.112" y="283.676" width="18.5608" height="60.3224" transform="rotate(135 398.112 283.676)" fill="#FFAC1C"/>
    <path fill-rule="evenodd" clip-rule="evenodd" d="M381.781 310.578C381.781 327.235 395.285 340.739 411.943 340.739C428.6 340.739 442.104 327.235 442.104 310.578C442.104 293.92 428.6 280.416 411.943 280.416C395.285 280.416 381.781 293.92 381.781 310.578ZM395.567 309.857C395.567 300.927 402.806 293.688 411.736 293.688C420.665 293.688 427.904 300.927 427.904 309.857C427.904 318.786 420.665 326.025 411.736 326.025C402.806 326.025 395.567 318.786 395.567 309.857ZM394.567 309.857C394.567 300.375 402.254 292.688 411.736 292.688C421.218 292.688 428.904 300.375 428.904 309.857C428.904 319.339 421.218 327.025 411.736 327.025C402.254 327.025 394.567 319.339 394.567 309.857Z" fill="#FFAC1C"/>
    <rect x="169.082" y="181.911" width="18.5608" height="60.3225" transform="rotate(-45 169.082 181.911)" fill="#FFAC1C"/>
    <rect x="169.082" y="121.456" width="18.5608" height="60.3224" fill="#FFAC1C"/>
    <path fill-rule="evenodd" clip-rule="evenodd" d="M199.651 113.982C211.43 102.203 211.43 83.1059 199.651 71.3272C187.873 59.5485 168.776 59.5485 156.997 71.3272C145.218 83.1059 145.218 102.203 156.997 113.982C168.776 125.76 187.873 125.76 199.651 113.982ZM189.394 104.744C183.079 111.058 172.842 111.058 166.528 104.744C160.213 98.4294 160.213 88.1919 166.528 81.8776C172.842 75.5634 183.079 75.5634 189.394 81.8776C195.708 88.1919 195.708 98.4294 189.394 104.744ZM190.101 105.451C183.396 112.156 172.525 112.156 165.821 105.451C159.116 98.7459 159.116 87.8753 165.821 81.1705C172.525 74.4657 183.396 74.4657 190.101 81.1705C196.806 87.8753 196.806 98.7459 190.101 105.451Z" fill="#FFAC1C"/>
    <rect x="330.918" y="318.089" width="18.5608" height="60.3225" transform="rotate(135 330.918 318.089)" fill="#FFAC1C"/>
    <rect x="330.918" y="378.544" width="18.5608" height="60.3224" transform="rotate(180 330.918 378.544)" fill="#FFAC1C"/>
    <path fill-rule="evenodd" clip-rule="evenodd" d="M300.349 386.018C288.57 397.797 288.57 416.894 300.349 428.673C312.127 440.451 331.224 440.451 343.003 428.673C354.782 416.894 354.782 397.797 343.003 386.018C331.224 374.24 312.127 374.24 300.349 386.018ZM310.606 395.256C316.921 388.942 327.158 388.942 333.472 395.256C339.787 401.571 339.787 411.808 333.472 418.122C327.158 424.437 316.921 424.437 310.606 418.122C304.292 411.808 304.292 401.571 310.606 395.256ZM309.899 394.549C316.604 387.844 327.475 387.844 334.179 394.549C340.884 401.254 340.884 412.125 334.179 418.829C327.475 425.534 316.604 425.534 309.899 418.829C303.194 412.125 303.194 401.254 309.899 394.549Z" fill="#FFAC1C"/>
    <rect x="318.089" y="169.082" width="18.5608" height="60.3225" transform="rotate(45 318.089 169.082)" fill="#FFAC1C"/>
    <rect x="378.544" y="169.082" width="18.5608" height="60.3224" transform="rotate(90 378.544 169.082)" fill="#FFAC1C"/>
    <path fill-rule="evenodd" clip-rule="evenodd" d="M386.018 199.651C397.797 211.43 416.894 211.43 428.673 199.651C440.451 187.873 440.451 168.776 428.673 156.997C416.894 145.218 397.797 145.218 386.018 156.997C374.24 168.776 374.24 187.873 386.018 199.651ZM395.256 189.394C388.942 183.079 388.942 172.842 395.256 166.528C401.571 160.213 411.808 160.213 418.122 166.528C424.437 172.842 424.437 183.079 418.122 189.394C411.808 195.708 401.571 195.708 395.256 189.394ZM394.549 190.101C387.844 183.396 387.844 172.525 394.549 165.821C401.254 159.116 412.125 159.116 418.829 165.821C425.534 172.525 425.534 183.396 418.829 190.101C412.125 196.806 401.254 196.806 394.549 190.101Z" fill="#FFAC1C"/>
    <rect x="181.911" y="330.918" width="18.5608" height="60.3225" transform="rotate(-135 181.911 330.918)" fill="#FFAC1C"/>
    <rect x="121.456" y="330.918" width="18.5608" height="60.3224" transform="rotate(-90 121.456 330.918)" fill="#FFAC1C"/>
    <path fill-rule="evenodd" clip-rule="evenodd" d="M113.982 300.349C102.203 288.57 83.1059 288.57 71.3272 300.349C59.5485 312.127 59.5485 331.224 71.3272 343.003C83.1059 354.782 102.203 354.782 113.982 343.003C125.76 331.224 125.76 312.127 113.982 300.349ZM104.744 310.606C111.058 316.921 111.058 327.158 104.744 333.472C98.4293 339.786 88.1919 339.786 81.8776 333.472C75.5633 327.158 75.5633 316.921 81.8776 310.606C88.1919 304.292 98.4293 304.292 104.744 310.606ZM105.451 309.899C112.156 316.604 112.156 327.475 105.451 334.179C98.7459 340.884 87.8753 340.884 81.1705 334.179C74.4657 327.475 74.4657 316.604 81.1705 309.899C87.8753 303.194 98.7459 303.194 105.451 309.899Z" fill="#FFAC1C"/>
    <path d="M511.719 407.453H537.354V265.51H511.719V254.963H624.512V273.713C627.637 269.904 631.348 266.535 635.645 263.605C639.941 260.578 644.678 258.039 649.854 255.988C655.127 253.84 660.742 252.229 666.699 251.154C672.754 249.982 679.004 249.396 685.449 249.396C692.188 249.396 698.242 250.227 703.613 251.887C708.984 253.547 713.574 255.842 717.383 258.771C721.191 261.604 724.072 265.021 726.025 269.025C728.076 272.932 729.102 277.18 729.102 281.77C729.102 286.164 727.979 290.314 725.732 294.221C723.584 298.127 720.557 301.545 716.65 304.475C712.842 307.404 708.35 309.748 703.174 311.506C697.998 313.166 692.48 313.996 686.621 313.996C680.762 313.996 675.244 313.166 670.068 311.506C664.893 309.748 660.352 307.404 656.445 304.475C652.637 301.545 649.609 298.127 647.363 294.221C645.117 290.314 643.994 286.164 643.994 281.77C643.994 279.523 644.287 277.326 644.873 275.178C645.557 272.932 646.436 270.832 647.51 268.879C645.459 269.855 643.066 271.369 640.332 273.42C637.695 275.373 635.205 277.814 632.861 280.744C630.518 283.674 628.516 287.092 626.855 290.998C625.293 294.807 624.512 298.957 624.512 303.449V407.453H652.93V418H511.719V407.453ZM751.221 379.621C751.221 372.102 752.637 365.656 755.469 360.285C758.301 354.816 762.305 350.227 767.48 346.516C772.656 342.707 778.857 339.68 786.084 337.434C793.311 335.09 801.318 333.283 810.107 332.014C818.994 330.744 828.516 329.914 838.672 329.523C848.828 329.035 859.375 328.791 870.312 328.791V320.588C870.312 308.088 869.434 298.078 867.676 290.559C866.016 283.039 863.428 277.277 859.912 273.273C856.494 269.27 852.246 266.682 847.168 265.51C842.09 264.24 836.182 263.605 829.443 263.605C825.83 263.605 821.973 263.898 817.871 264.484C813.867 265.07 810.303 265.754 807.178 266.535C811.67 267.023 815.82 268.146 819.629 269.904C823.438 271.662 826.709 273.859 829.443 276.496C832.178 279.133 834.277 282.062 835.742 285.285C837.305 288.508 838.086 291.779 838.086 295.1C838.086 299.201 837.061 303.059 835.01 306.672C832.959 310.285 830.127 313.459 826.514 316.193C822.9 318.83 818.701 320.93 813.916 322.492C809.131 324.055 804.004 324.836 798.535 324.836C793.066 324.836 787.939 324.055 783.154 322.492C778.467 320.93 774.316 318.83 770.703 316.193C767.188 313.459 764.404 310.285 762.354 306.672C760.303 303.059 759.277 299.201 759.277 295.1C759.277 289.631 760.742 284.699 763.672 280.305C766.699 275.91 770.752 272.053 775.83 268.732C781.006 265.314 787.061 262.385 793.994 259.943C801.025 257.502 808.545 255.5 816.553 253.938C824.561 252.375 832.861 251.252 841.455 250.568C850.146 249.787 858.789 249.396 867.383 249.396C882.617 249.396 895.85 250.471 907.08 252.619C918.408 254.67 927.783 258.381 935.205 263.752C942.725 269.025 948.34 276.301 952.051 285.578C955.762 294.758 957.617 306.428 957.617 320.588V381.965C957.617 389.289 958.35 394.953 959.814 398.957C961.377 402.863 964.209 404.816 968.311 404.816C970.361 404.816 972.021 404.182 973.291 402.912C974.658 401.545 975.684 399.787 976.367 397.639C977.148 395.49 977.686 393 977.979 390.168C978.271 387.336 978.418 384.455 978.418 381.525V367.023H991.455V381.525C991.455 389.338 990.43 395.93 988.379 401.301C986.426 406.672 982.959 411.018 977.979 414.338C973.096 417.658 966.504 420.002 958.203 421.369C950 422.834 939.648 423.566 927.148 423.566C920.801 423.566 914.844 423.225 909.277 422.541C903.809 421.857 898.779 420.686 894.189 419.025C889.697 417.365 885.791 415.168 882.471 412.434C879.15 409.699 876.514 406.281 874.561 402.18C871.631 406.672 867.725 410.334 862.842 413.166C857.959 415.9 852.686 418.049 847.021 419.611C841.357 421.174 835.645 422.199 829.883 422.688C824.121 423.273 818.848 423.566 814.062 423.566C802.637 423.566 792.92 422.346 784.912 419.904C776.904 417.561 770.41 414.387 765.43 410.383C760.449 406.379 756.836 401.74 754.59 396.467C752.344 391.096 751.221 385.48 751.221 379.621ZM835.742 378.01C835.742 385.236 837.061 391.096 839.697 395.588C842.334 399.982 846.68 402.18 852.734 402.18C857.812 402.18 862.012 400.373 865.332 396.76C868.652 393.049 870.312 388.117 870.312 381.965V342.268C863.281 342.268 857.52 342.902 853.027 344.172C848.535 345.441 844.971 347.492 842.334 350.324C839.795 353.059 838.037 356.721 837.061 361.311C836.182 365.9 835.742 371.467 835.742 378.01ZM1013.57 407.453H1039.21V265.51H1013.57V254.963H1126.37V273.713C1129.49 269.904 1133.25 266.486 1137.65 263.459C1142.14 260.432 1147.07 257.893 1152.44 255.842C1157.81 253.693 1163.53 252.082 1169.58 251.008C1175.73 249.934 1182.03 249.396 1188.48 249.396C1201.76 249.396 1212.7 251.154 1221.29 254.67C1229.98 258.088 1236.82 263.02 1241.8 269.465C1246.78 275.812 1250.24 283.576 1252.2 292.756C1254.15 301.838 1255.13 311.994 1255.13 323.225V407.453H1280.76V418H1153.32V407.453H1167.97V323.225C1167.97 313.166 1167.68 304.963 1167.09 298.615C1166.5 292.17 1165.48 287.141 1164.01 283.527C1162.55 279.816 1160.6 277.277 1158.15 275.91C1155.71 274.445 1152.64 273.713 1148.93 273.713C1145.21 273.713 1141.94 274.494 1139.11 276.057C1136.28 277.619 1133.89 279.816 1131.93 282.648C1130.08 285.48 1128.66 288.85 1127.69 292.756C1126.81 296.662 1126.37 300.91 1126.37 305.5V407.453H1140.87V418H1013.57V407.453ZM1295.26 450.666C1295.26 445.979 1297.66 441.389 1302.44 436.896C1307.32 432.404 1315.33 428.205 1326.46 424.299C1311.04 416.096 1303.32 404.035 1303.32 388.117C1303.32 383.43 1304.05 378.889 1305.52 374.494C1306.98 370.002 1309.23 365.803 1312.26 361.896C1315.38 357.99 1319.29 354.523 1323.97 351.496C1328.76 348.469 1334.38 346.027 1340.82 344.172C1330.18 339.582 1322.12 333.723 1316.65 326.594C1311.18 319.367 1308.45 311.115 1308.45 301.838C1308.45 294.904 1310.3 288.264 1314.01 281.916C1317.82 275.568 1323.54 270.002 1331.15 265.217C1338.77 260.334 1348.39 256.477 1360.01 253.645C1371.63 250.812 1385.3 249.396 1401.03 249.396C1409.23 249.396 1416.85 249.787 1423.88 250.568C1431.01 251.35 1437.65 252.473 1443.8 253.938C1446.92 248.566 1450.68 243.977 1455.08 240.168C1459.47 236.359 1464.26 233.234 1469.43 230.793C1474.71 228.352 1480.27 226.545 1486.13 225.373C1491.99 224.201 1497.95 223.615 1504 223.615C1508.2 223.615 1512.11 224.25 1515.72 225.52C1519.34 226.691 1522.46 228.303 1525.1 230.354C1527.83 232.404 1529.98 234.797 1531.54 237.531C1533.11 240.266 1533.89 243.195 1533.89 246.32C1533.89 249.445 1533.11 252.375 1531.54 255.109C1529.98 257.844 1527.83 260.236 1525.1 262.287C1522.46 264.338 1519.34 265.998 1515.72 267.268C1512.11 268.439 1508.2 269.025 1504 269.025C1499.9 269.025 1496 268.439 1492.29 267.268C1488.67 265.998 1485.5 264.338 1482.76 262.287C1480.03 260.236 1477.88 257.844 1476.32 255.109C1474.76 252.375 1473.97 249.445 1473.97 246.32C1473.97 243.781 1474.56 241.242 1475.73 238.703C1471.53 240.461 1467.53 242.854 1463.72 245.881C1460.01 248.908 1456.84 252.619 1454.2 257.014C1467.09 261.408 1476.86 267.463 1483.5 275.178C1490.23 282.795 1493.6 291.682 1493.6 301.838C1493.6 309.748 1491.55 316.926 1487.45 323.371C1483.35 329.816 1477.34 335.334 1469.43 339.924C1461.62 344.514 1451.95 348.078 1440.43 350.617C1428.91 353.059 1415.77 354.279 1401.03 354.279C1382.47 354.279 1366.6 352.375 1353.42 348.566C1347.85 349.641 1343.95 351.154 1341.7 353.107C1339.55 355.061 1338.48 357.062 1338.48 359.113C1338.48 360.48 1338.96 361.848 1339.94 363.215C1340.92 364.582 1342.77 365.803 1345.51 366.877C1348.34 367.951 1352.2 368.879 1357.08 369.66C1361.96 370.344 1368.36 370.686 1376.27 370.686H1435.16C1445.9 370.686 1455.81 371.613 1464.89 373.469C1473.97 375.227 1481.79 378.205 1488.33 382.404C1494.97 386.506 1500.15 392.023 1503.86 398.957C1507.57 405.891 1509.42 414.484 1509.42 424.738C1509.42 433.527 1507.42 441.438 1503.42 448.469C1499.51 455.598 1493.07 461.652 1484.08 466.633C1475.2 471.613 1463.53 475.422 1449.07 478.059C1434.62 480.695 1416.94 482.014 1396.04 482.014C1377.88 482.014 1362.4 481.184 1349.61 479.523C1336.91 477.863 1326.51 475.617 1318.41 472.785C1310.4 469.953 1304.54 466.633 1300.83 462.824C1297.12 459.016 1295.26 454.963 1295.26 450.666ZM1401.03 345.197C1404.74 345.197 1407.81 344.416 1410.25 342.854C1412.79 341.193 1414.79 338.654 1416.26 335.236C1417.72 331.721 1418.75 327.229 1419.34 321.76C1419.92 316.291 1420.21 309.65 1420.21 301.838C1420.21 294.025 1419.92 287.385 1419.34 281.916C1418.75 276.447 1417.72 272.004 1416.26 268.586C1414.79 265.07 1412.79 262.531 1410.25 260.969C1407.81 259.309 1404.74 258.479 1401.03 258.479C1397.31 258.479 1394.19 259.309 1391.65 260.969C1389.21 262.531 1387.26 265.07 1385.79 268.586C1384.33 272.004 1383.25 276.447 1382.57 281.916C1381.98 287.385 1381.69 294.025 1381.69 301.838C1381.69 309.65 1381.98 316.291 1382.57 321.76C1383.25 327.229 1384.33 331.721 1385.79 335.236C1387.26 338.654 1389.21 341.193 1391.65 342.854C1394.19 344.416 1397.31 345.197 1401.03 345.197ZM1318.7 449.201C1318.7 450.666 1318.99 452.229 1319.58 453.889C1320.26 455.549 1321.53 457.209 1323.39 458.869C1325.34 460.529 1328.03 462.092 1331.45 463.557C1334.96 465.021 1339.6 466.34 1345.36 467.512C1351.12 468.684 1358.15 469.611 1366.46 470.295C1374.76 470.979 1384.67 471.32 1396.19 471.32C1409.96 471.32 1422.17 470.734 1432.81 469.562C1443.46 468.391 1452.39 466.779 1459.62 464.729C1466.94 462.775 1472.46 460.383 1476.17 457.551C1479.98 454.816 1481.88 451.838 1481.88 448.615C1481.88 443.928 1478.42 440.51 1471.48 438.361C1464.55 436.311 1454.54 435.285 1441.46 435.285H1383.3C1374.51 435.285 1366.46 434.797 1359.13 433.82C1351.81 432.844 1345.12 431.428 1339.06 429.572C1331.54 432.697 1326.27 435.871 1323.24 439.094C1320.21 442.414 1318.7 445.783 1318.7 449.201ZM1540.48 334.943C1540.48 321.857 1543.16 310.041 1548.54 299.494C1553.91 288.947 1561.33 279.963 1570.8 272.541C1580.37 265.119 1591.65 259.406 1604.64 255.402C1617.72 251.398 1631.88 249.396 1647.12 249.396C1658.84 249.396 1669.43 250.568 1678.91 252.912C1688.48 255.256 1696.92 258.479 1704.25 262.58C1711.67 266.584 1718.02 271.369 1723.29 276.936C1728.66 282.502 1733.06 288.508 1736.47 294.953C1739.99 301.398 1742.58 308.186 1744.24 315.314C1745.9 322.346 1746.73 329.426 1746.73 336.555H1629.25C1629.25 351.496 1629.88 363.654 1631.15 373.029C1632.52 382.404 1634.62 389.777 1637.45 395.148C1640.38 400.422 1644.09 404.035 1648.58 405.988C1653.17 407.941 1658.69 408.918 1665.14 408.918C1673.34 408.918 1681.05 407.893 1688.28 405.842C1695.51 403.791 1701.95 400.91 1707.62 397.199C1713.38 393.391 1718.16 388.85 1721.97 383.576C1725.78 378.205 1728.37 372.199 1729.74 365.559H1743.51C1742.53 374.641 1739.75 382.795 1735.16 390.021C1730.57 397.15 1724.46 403.205 1716.85 408.186C1709.33 413.166 1700.44 416.975 1690.19 419.611C1680.03 422.248 1668.9 423.566 1656.79 423.566C1637.74 423.566 1620.95 421.613 1606.4 417.707C1591.94 413.703 1579.83 407.941 1570.07 400.422C1560.3 392.805 1552.93 383.527 1547.95 372.59C1542.97 361.555 1540.48 349.006 1540.48 334.943ZM1670.41 321.76C1670.12 309.553 1669.53 299.396 1668.65 291.291C1667.77 283.186 1666.5 276.691 1664.84 271.809C1663.18 266.926 1661.13 263.508 1658.69 261.555C1656.25 259.504 1653.32 258.479 1649.9 258.479C1646.48 258.479 1643.51 259.504 1640.97 261.555C1638.53 263.508 1636.47 266.926 1634.81 271.809C1633.15 276.691 1631.88 283.186 1631.01 291.291C1630.13 299.396 1629.59 309.553 1629.39 321.76H1670.41ZM1774.56 406.428H1800.2V221.857H1774.56V210.432H1926.76V221.857H1901.27V406.428H1947.85L1984.62 339.777H1994.58V418H1774.56V406.428ZM2016.85 406.428H2042.48V221.857H2016.85V210.432H2169.04V221.857H2143.55V406.428H2169.04V418H2016.85V406.428ZM2210.64 338.312H2220.46C2222.9 343.098 2225.93 348.273 2229.54 353.84C2233.15 359.309 2237.4 364.777 2242.29 370.246C2247.17 375.715 2252.73 380.988 2258.98 386.066C2265.23 391.047 2272.22 395.441 2279.93 399.25C2287.65 403.059 2296.14 406.135 2305.42 408.479C2314.7 410.725 2324.85 411.848 2335.89 411.848C2339.11 411.848 2342.72 411.701 2346.73 411.408C2350.73 411.018 2354.49 410.285 2358.01 409.211C2361.52 408.039 2364.45 406.428 2366.8 404.377C2369.24 402.229 2370.46 399.396 2370.46 395.881C2370.46 392.17 2368.9 388.898 2365.77 386.066C2362.74 383.137 2358.11 380.354 2351.86 377.717C2345.61 374.982 2337.7 372.248 2328.12 369.514C2318.65 366.779 2307.47 363.703 2294.58 360.285C2265.87 352.863 2244.58 342.512 2230.71 329.23C2216.94 315.852 2210.06 299.543 2210.06 280.305C2210.06 268.293 2212.5 257.6 2217.38 248.225C2222.36 238.85 2229.1 230.988 2237.6 224.641C2246.19 218.195 2256.2 213.312 2267.63 209.992C2279.15 206.574 2291.41 204.865 2304.39 204.865C2311.04 204.865 2317.97 205.451 2325.2 206.623C2332.52 207.795 2339.65 209.406 2346.58 211.457C2353.52 213.508 2360.06 215.998 2366.21 218.928C2372.36 221.76 2377.73 224.885 2382.32 228.303L2404.44 206.916H2414.55V270.637H2405.32C2401.03 262.922 2395.51 255.744 2388.77 249.104C2382.03 242.463 2374.32 236.701 2365.62 231.818C2356.93 226.936 2347.31 223.078 2336.77 220.246C2326.22 217.414 2315.04 215.998 2303.22 215.998C2300.98 215.998 2298.1 216.096 2294.58 216.291C2291.06 216.389 2287.6 216.877 2284.18 217.756C2280.86 218.635 2277.98 220.051 2275.54 222.004C2273.1 223.859 2271.88 226.496 2271.88 229.914C2271.88 235.48 2276.9 240.852 2286.96 246.027C2297.12 251.105 2312.21 256.281 2332.23 261.555C2340.72 263.801 2348.93 266.193 2356.84 268.732C2364.75 271.174 2372.12 274.006 2378.96 277.229C2385.89 280.354 2392.14 283.967 2397.71 288.068C2403.37 292.072 2408.2 296.809 2412.21 302.277C2416.21 307.746 2419.29 313.996 2421.44 321.027C2423.68 328.059 2424.8 336.164 2424.8 345.344C2424.8 355.988 2422.85 366.047 2418.95 375.52C2415.04 384.992 2409.18 393.293 2401.37 400.422C2393.65 407.551 2384.03 413.215 2372.51 417.414C2360.99 421.516 2347.66 423.566 2332.52 423.566C2324.22 423.566 2316.41 422.932 2309.08 421.662C2301.76 420.393 2294.63 418.488 2287.7 415.949C2280.86 413.41 2274.07 410.236 2267.33 406.428C2260.6 402.521 2253.66 397.98 2246.53 392.805L2221.63 420.783H2210.64V338.312Z" fill="#FFAC1C"/>
    <circle cx="250" cy="250" r="237.5" stroke="#FFAC1C" stroke-width="25"/>
</svg>
