<svg fill="#ffac1c" height="200px" width="200px" version="1.1" id="Layer_1"
    xmlns="http://www.w3.org/2000/svg"
    xmlns:xlink="http://www.w3.org/1999/xlink" viewBox="0 0 376.102 376.102" xml:space="preserve">
    <g id="SVGRepo_bgCarrier" stroke-width="0"></g>
    <g id="SVGRepo_tracerCarrier" stroke-linecap="round" stroke-linejoin="round"></g>
    <g id="SVGRepo_iconCarrier">
        <g>
            <g>
                <path d="M0,192.227c0,20.198,16.374,36.567,36.567,36.567c20.198,0,36.567-16.374,36.567-36.567S36.567,91.276,36.567,91.276 S0,172.029,0,192.227z"></path>
                <path d="M364.39,285.698l-91.955-91.955c7.127-7.127,7.127-18.678,0-25.8c-7.127-7.127-18.678-7.127-25.8,0l-56.55,56.55 c-7.122,7.127-7.122,18.678,0,25.8c7.127,7.127,18.678,7.127,25.8,0l91.955,91.955c15.616,15.616,40.934,15.616,56.55,0 C380.006,326.632,380.006,301.314,364.39,285.698z"></path>
                <path d="M90.097,22.714l-6.221,6.221c-9.057-9.057-23.747-9.057-32.804,0c-9.057,9.057-9.057,23.747,0,32.804l-6.221,6.221 l131.21,131.2l45.24-45.24L90.097,22.714z M156.749,156.29L66.109,65.656l22.154-22.154l90.639,90.634L156.749,156.29z"></path>
            </g>
        </g>
    </g>
</svg>