<svg fill="#ffac1c" viewBox="0 0 32 32" version="1.1"
    xmlns="http://www.w3.org/2000/svg">
    <g id="SVGRepo_bgCarrier" stroke-width="0"></g>
    <g id="SVGRepo_tracerCarrier" stroke-linecap="round" stroke-linejoin="round"></g>
    <g id="SVGRepo_iconCarrier">
        <title>round-bottom-flask</title>
        <path d="M19.51 11.85c-1.599-1.948 0.669-6.495 1.477-8.358h-1.233l0.814-2.2h-9.199l0.938 2.2h-1.257c0.981 2.688 3.337 5.822 1.539 8.358-1.866 2.632-6.268 4.904-6.268 9.054 0 5.363 4.344 9.75 9.707 9.75s9.75-4.387 9.75-9.751c0-4.141-4.217-6.556-6.268-9.054zM16.030 29.058c-4.354 0-7.895-3.579-7.895-7.933 0-1.598 0.832-2.841 1.839-3.947h12.225c0.971 1.111 1.763 2.372 1.763 3.947 0 4.354-3.579 7.933-7.933 7.933z"></path>
    </g>
</svg>